<svg width="90" height="90" viewBox="0 0 90 90" fill="none" xmlns="http://www.w3.org/2000/svg">
<g filter="url(#filter0_ddd_201_237)">
<rect x="5" y="4" width="80" height="80" rx="40" fill="#212121"/>
<path d="M29.2857 42.7857C29.2857 43.1646 29.1352 43.5279 28.8673 43.7959C28.5994 44.0638 28.236 44.2143 27.8571 44.2143H26.4286C26.0497 44.2143 25.6863 44.0638 25.4184 43.7959C25.1505 43.5279 25 43.1646 25 42.7857C25 42.4068 25.1505 42.0435 25.4184 41.7756C25.6863 41.5076 26.0497 41.3571 26.4286 41.3571H27.8571C28.236 41.3571 28.5994 41.5076 28.8673 41.7756C29.1352 42.0435 29.2857 42.4068 29.2857 42.7857ZM30.5371 32.2014C30.2467 31.958 29.8715 31.8399 29.494 31.8731C29.1165 31.9063 28.7677 32.0882 28.5243 32.3786C28.2809 32.669 28.1628 33.0442 28.196 33.4217C28.2292 33.7992 28.411 34.148 28.7014 34.3914L29.7957 35.3086C30.0859 35.5522 30.461 35.6705 30.8385 35.6376C31.216 35.6046 31.5649 35.4231 31.8086 35.1329C32.0522 34.8426 32.1705 34.4675 32.1376 34.09C32.1046 33.7125 31.9231 33.3636 31.6329 33.12L30.5371 32.2014ZM39.2857 32.7857C39.6646 32.7857 40.0279 32.6352 40.2959 32.3673C40.5638 32.0994 40.7143 31.736 40.7143 31.3571V29.9286C40.7143 29.5497 40.5638 29.1863 40.2959 28.9184C40.0279 28.6505 39.6646 28.5 39.2857 28.5C38.9068 28.5 38.5435 28.6505 38.2756 28.9184C38.0076 29.1863 37.8571 29.5497 37.8571 29.9286V31.3571C37.8571 31.736 38.0076 32.0994 38.2756 32.3673C38.5435 32.6352 38.9068 32.7857 39.2857 32.7857ZM50.0457 32.3786C49.8023 32.0885 49.4538 31.9069 49.0766 31.8737C48.6995 31.8405 48.3246 31.9584 48.0343 32.2014L46.9386 33.12C46.6483 33.3636 46.4668 33.7125 46.4338 34.09C46.4009 34.4675 46.5192 34.8426 46.7628 35.1329C47.0065 35.4231 47.3554 35.6046 47.7329 35.6376C48.1104 35.6705 48.4855 35.5522 48.7757 35.3086L49.87 34.3914C50.0137 34.2708 50.1323 34.1231 50.2189 33.9566C50.3055 33.7902 50.3585 33.6083 50.3748 33.4214C50.3911 33.2345 50.3704 33.0462 50.314 32.8672C50.2575 32.6883 50.1663 32.5223 50.0457 32.3786ZM40 35.6429C37.9173 35.6466 35.921 36.4756 34.4483 37.9483C32.9756 39.421 32.1466 41.4173 32.1429 43.5C32.1394 44.2344 32.2404 44.9655 32.4429 45.6714C32.9086 45.5033 33.3861 45.3696 33.8714 45.2714C34.4415 45.157 35.0193 45.0854 35.6 45.0571C36.9125 43.0829 38.6879 41.4596 40.7714 40.3286C42.4378 39.4022 44.2749 38.8238 46.1714 38.6286C45.4376 37.6943 44.5003 36.9397 43.4308 36.4223C42.3614 35.905 41.188 35.6384 40 35.6429Z" fill="#F1FFF5"/>
<path d="M63.9556 51.9171C63.3789 50.9472 62.6087 50.1064 61.6929 49.447C60.7772 48.7876 59.7355 48.3237 58.6328 48.0843L58.5856 48.0714C57.5132 45.8575 55.7795 44.0315 53.6242 42.8457C51.8605 41.888 49.8856 41.3857 47.8787 41.3845C45.8717 41.3832 43.8962 41.883 42.1314 42.8386C40.2642 43.8583 38.7074 45.3638 37.6256 47.1957C37.5046 47.4156 37.3258 47.5984 37.1085 47.7243C36.8913 47.8501 36.6438 47.9143 36.3928 47.91C35.7387 47.8853 35.084 47.9395 34.4428 48.0714C33.1744 48.3374 31.9899 48.9084 30.9917 49.735C29.9936 50.5617 29.2119 51.619 28.7142 52.8157C28.313 53.7988 28.1082 54.851 28.1114 55.9128C28.1189 56.9783 28.5465 57.9977 29.3014 58.7496C30.0563 59.5015 31.0773 59.9252 32.1428 59.9286H60.9471C61.4804 59.9291 62.0086 59.8243 62.5013 59.6201C62.994 59.4159 63.4416 59.1164 63.8182 58.7387C64.1948 58.3611 64.493 57.9127 64.6958 57.4194C64.8986 56.9261 65.002 56.3976 64.9999 55.8643C64.9936 54.4811 64.6341 53.1225 63.9556 51.9171Z" fill="#F1FFF5"/>
</g>
<defs>
<filter id="filter0_ddd_201_237" x="0" y="0" width="90" height="90" filterUnits="userSpaceOnUse" color-interpolation-filters="sRGB">
<feFlood flood-opacity="0" result="BackgroundImageFix"/>
<feColorMatrix in="SourceAlpha" type="matrix" values="0 0 0 0 0 0 0 0 0 0 0 0 0 0 0 0 0 0 127 0" result="hardAlpha"/>
<feOffset dy="1"/>
<feGaussianBlur stdDeviation="2.5"/>
<feColorMatrix type="matrix" values="0 0 0 0 0 0 0 0 0 0 0 0 0 0 0 0 0 0 0.2 0"/>
<feBlend mode="normal" in2="BackgroundImageFix" result="effect1_dropShadow_201_237"/>
<feColorMatrix in="SourceAlpha" type="matrix" values="0 0 0 0 0 0 0 0 0 0 0 0 0 0 0 0 0 0 127 0" result="hardAlpha"/>
<feOffset dy="3"/>
<feGaussianBlur stdDeviation="0.5"/>
<feColorMatrix type="matrix" values="0 0 0 0 0 0 0 0 0 0 0 0 0 0 0 0 0 0 0.12 0"/>
<feBlend mode="normal" in2="effect1_dropShadow_201_237" result="effect2_dropShadow_201_237"/>
<feColorMatrix in="SourceAlpha" type="matrix" values="0 0 0 0 0 0 0 0 0 0 0 0 0 0 0 0 0 0 127 0" result="hardAlpha"/>
<feOffset dy="2"/>
<feGaussianBlur stdDeviation="1"/>
<feColorMatrix type="matrix" values="0 0 0 0 0 0 0 0 0 0 0 0 0 0 0 0 0 0 0.14 0"/>
<feBlend mode="normal" in2="effect2_dropShadow_201_237" result="effect3_dropShadow_201_237"/>
<feBlend mode="normal" in="SourceGraphic" in2="effect3_dropShadow_201_237" result="shape"/>
</filter>
</defs>
</svg>
