<svg width="94" height="94" viewBox="0 0 94 94" fill="none" xmlns="http://www.w3.org/2000/svg">
<path d="M57.4446 86.1666C57.4446 91.9346 36.5557 91.9346 36.5557 86.1666V60.0555C36.5557 57.2855 37.6561 54.6289 39.6148 52.6702C41.5735 50.7115 44.2301 49.6111 47.0001 49.6111C49.7701 49.6111 52.4267 50.7115 54.3854 52.6702C56.3442 54.6289 57.4446 57.2855 57.4446 60.0555V86.1666Z" fill="#C1694F"/>
<path d="M26.1111 7.83337C20.571 7.83337 15.2578 10.0342 11.3404 13.9516C7.42296 17.869 5.22217 23.1822 5.22217 28.7223V60.0556H46.9999V28.7223C46.9999 23.1822 44.7992 17.869 40.8817 13.9516C36.9643 10.0342 31.6511 7.83337 26.1111 7.83337Z" fill="#292F33"/>
<path d="M52.2222 48.987C52.2222 52.2143 49.4414 54.8333 46.2349 54.8333H5.98728C2.77822 54.8333 0 52.2143 0 48.987V21.5129C0 18.2856 2.77822 15.6666 5.98728 15.6666H46.2349C49.4414 15.6666 52.2222 18.2856 52.2222 21.5129V48.987Z" fill="#CCD6DD"/>
<path d="M52.2222 21.5129C52.2222 18.2856 49.4414 15.6666 46.2349 15.6666H5.98728C2.77822 15.6666 0 18.2856 0 21.5129V25.2181L12.7396 38.023L0.2585 50.572C0.550944 51.5537 1.08361 52.4415 1.81472 53.1387L14.7972 40.0883L21.0821 46.4046C21.7357 47.0625 22.5129 47.5846 23.369 47.9409C24.2252 48.2972 25.1433 48.4806 26.0706 48.4806C26.998 48.4806 27.9161 48.2972 28.7723 47.9409C29.6284 47.5846 30.4056 47.0625 31.0592 46.4046L37.3937 40.0544L50.4075 53.1387C51.1386 52.4389 51.6687 51.5511 51.9637 50.572L39.4513 37.9916L52.2222 25.1867V21.5129Z" fill="#99AAB5"/>
<path d="M46.235 15.6666H5.9873C2.94275 15.6666 0.315968 18.0323 0.0522461 21.0325L22.0065 42.958C24.2755 45.2401 27.952 45.1513 30.2184 42.8666L52.1779 21.0742C51.9324 18.0532 49.29 15.6666 46.235 15.6666Z" fill="#E1E8ED"/>
<path d="M67.8889 7.83337H26.1111C31.6512 7.83337 36.9643 10.0342 40.8818 13.9516C44.7992 17.869 47 23.1822 47 28.7223V60.0556H88.7778V28.7223C88.7778 23.1822 86.577 17.869 82.6595 13.9516C78.7421 10.0342 73.4289 7.83337 67.8889 7.83337Z" fill="#99AAB5"/>
</svg>
