<svg width="90" height="90" viewBox="0 0 90 90" fill="none" xmlns="http://www.w3.org/2000/svg">
<g filter="url(#filter0_ddd_201_279)">
<rect x="5" y="4" width="80" height="80" rx="40" fill="#212121"/>
<path d="M60 41.5H58.75V39C58.75 35.3533 57.3013 31.8559 54.7227 29.2773C52.1441 26.6987 48.6467 25.25 45 25.25C41.3533 25.25 37.8559 26.6987 35.2773 29.2773C32.6987 31.8559 31.25 35.3533 31.25 39V41.5H30C29.0054 41.5 28.0516 41.8951 27.3483 42.5983C26.6451 43.3016 26.25 44.2554 26.25 45.25V50.25C26.25 51.2446 26.6451 52.1984 27.3483 52.9017C28.0516 53.6049 29.0054 54 30 54H31.25C31.25 54.9946 31.6451 55.9484 32.3483 56.6517C33.0516 57.3549 34.0054 57.75 35 57.75C35.9946 57.75 36.9484 57.3549 37.6517 56.6517C38.3549 55.9484 38.75 54.9946 38.75 54V41.5C38.7503 40.8999 38.6066 40.3085 38.331 39.7755C38.0553 39.2424 37.6557 38.7833 37.1659 38.4367C36.676 38.0901 36.1101 37.8662 35.5157 37.7837C34.9213 37.7011 34.3158 37.7625 33.75 37.9625C34.0137 35.1747 35.3077 32.5854 37.3789 30.7009C39.4501 28.8163 42.1497 27.772 44.95 27.772C47.7503 27.772 50.4499 28.8163 52.5211 30.7009C54.5923 32.5854 55.8863 35.1747 56.15 37.9625C55.59 37.7821 54.9954 37.7359 54.4143 37.8278C53.8332 37.9196 53.2819 38.1469 52.8048 38.4913C52.3278 38.8357 51.9385 39.2875 51.6684 39.8101C51.3983 40.3328 51.255 40.9117 51.25 41.5V54C51.2517 54.599 51.3968 55.189 51.6733 55.7204C51.9498 56.2518 52.3496 56.7092 52.8392 57.0544C53.3288 57.3995 53.894 57.6224 54.4874 57.7043C55.0808 57.7862 55.6852 57.7247 56.25 57.525V60.25H52.375C52.1962 61.1584 51.8114 62.0137 51.25 62.75H57.5C57.8315 62.75 58.1495 62.6183 58.3839 62.3839C58.6183 62.1495 58.75 61.8315 58.75 61.5V54H60C60.9946 54 61.9484 53.6049 62.6516 52.9017C63.3549 52.1984 63.75 51.2446 63.75 50.25V45.25C63.75 44.2554 63.3549 43.3016 62.6516 42.5983C61.9484 41.8951 60.9946 41.5 60 41.5Z" fill="#F1FFF5"/>
<path d="M46.25 55.25H43.75C42.7554 55.25 41.8016 55.6451 41.0983 56.3483C40.3951 57.0516 40 58.0054 40 59C40 59.9946 40.3951 60.9484 41.0983 61.6517C41.8016 62.3549 42.7554 62.75 43.75 62.75H46.25C47.2446 62.75 48.1984 62.3549 48.9017 61.6517C49.6049 60.9484 50 59.9946 50 59C50 58.0054 49.6049 57.0516 48.9017 56.3483C48.1984 55.6451 47.2446 55.25 46.25 55.25Z" fill="#F1FFF5"/>
</g>
<defs>
<filter id="filter0_ddd_201_279" x="0" y="0" width="90" height="90" filterUnits="userSpaceOnUse" color-interpolation-filters="sRGB">
<feFlood flood-opacity="0" result="BackgroundImageFix"/>
<feColorMatrix in="SourceAlpha" type="matrix" values="0 0 0 0 0 0 0 0 0 0 0 0 0 0 0 0 0 0 127 0" result="hardAlpha"/>
<feOffset dy="1"/>
<feGaussianBlur stdDeviation="2.5"/>
<feColorMatrix type="matrix" values="0 0 0 0 0 0 0 0 0 0 0 0 0 0 0 0 0 0 0.2 0"/>
<feBlend mode="normal" in2="BackgroundImageFix" result="effect1_dropShadow_201_279"/>
<feColorMatrix in="SourceAlpha" type="matrix" values="0 0 0 0 0 0 0 0 0 0 0 0 0 0 0 0 0 0 127 0" result="hardAlpha"/>
<feOffset dy="3"/>
<feGaussianBlur stdDeviation="0.5"/>
<feColorMatrix type="matrix" values="0 0 0 0 0 0 0 0 0 0 0 0 0 0 0 0 0 0 0.12 0"/>
<feBlend mode="normal" in2="effect1_dropShadow_201_279" result="effect2_dropShadow_201_279"/>
<feColorMatrix in="SourceAlpha" type="matrix" values="0 0 0 0 0 0 0 0 0 0 0 0 0 0 0 0 0 0 127 0" result="hardAlpha"/>
<feOffset dy="2"/>
<feGaussianBlur stdDeviation="1"/>
<feColorMatrix type="matrix" values="0 0 0 0 0 0 0 0 0 0 0 0 0 0 0 0 0 0 0.14 0"/>
<feBlend mode="normal" in2="effect2_dropShadow_201_279" result="effect3_dropShadow_201_279"/>
<feBlend mode="normal" in="SourceGraphic" in2="effect3_dropShadow_201_279" result="shape"/>
</filter>
</defs>
</svg>
