<svg width="91" height="90" viewBox="0 0 91 90" fill="none" xmlns="http://www.w3.org/2000/svg">
<g filter="url(#filter0_ddd_201_244)">
<rect x="5.5" y="4" width="80" height="80" rx="40" fill="#212121"/>
<g clip-path="url(#clip0_201_244)">
<path d="M52.8437 52.75C53.3649 65.4414 29.7153 66.2997 27.4375 55.0438C25.3821 45.1593 36.8574 31.4948 46.475 39.5938C48.4003 41.217 49.9623 43.2274 51.0596 45.4941C52.1568 47.7607 52.7647 50.233 52.8437 52.75Z" fill="#F1FFF5"/>
<path d="M46.2813 35.25C46.2777 35.9119 46.0131 36.5457 45.545 37.0138C45.077 37.4818 44.4432 37.7464 43.7813 37.75C41.6791 37.2858 34.0631 39.2198 33.8065 35.6191C33.7557 35.2637 33.7816 34.9015 33.8824 34.557C33.9833 34.2125 34.1568 33.8935 34.3913 33.6217C34.6258 33.3498 34.9158 33.1314 35.2418 32.981C35.5678 32.8306 35.9223 32.7519 36.2813 32.75C38.4884 33.2337 46.44 31.1447 46.2813 35.25Z" fill="white"/>
<path d="M44.4063 28.375C43.9419 36.2913 35.1342 35.1025 35.7313 27.6125L35.7375 27.6063C36.424 24.1872 44.6169 24.2679 44.4063 28.375Z" fill="#F1FFF5"/>
<path d="M63.7812 60.25C63.7783 60.9121 63.5139 61.5463 63.0457 62.0145C62.5775 62.4827 61.9434 62.747 61.2812 62.75H48.7812C48.1182 62.75 47.4823 62.4866 47.0135 62.0178C46.5446 61.5489 46.2812 60.913 46.2812 60.25C46.2812 59.587 46.5446 58.9511 47.0135 58.4822C47.4823 58.0134 48.1182 57.75 48.7812 57.75H61.2812C62.3859 57.7456 63.7812 60.0063 63.7812 60.25Z" fill="white"/>
<path d="M61.2812 52.75H48.7812C47.4005 52.75 46.2812 53.8693 46.2812 55.25C46.2812 56.6307 47.4005 57.75 48.7812 57.75H61.2812C62.662 57.75 63.7812 56.6307 63.7812 55.25C63.7812 53.8693 62.662 52.75 61.2812 52.75Z" fill="white"/>
<path d="M61.2812 47.75H48.7812C47.4005 47.75 46.2812 48.8693 46.2812 50.25C46.2812 51.6307 47.4005 52.75 48.7812 52.75H61.2812C62.662 52.75 63.7812 51.6307 63.7812 50.25C63.7812 48.8693 62.662 47.75 61.2812 47.75Z" fill="white"/>
<path opacity="0.1" d="M47.5 49H60C60.3315 49 60.6495 49.1317 60.8839 49.3661C61.1183 49.6005 61.25 49.9185 61.25 50.25C61.25 50.5815 61.1183 50.8995 60.8839 51.1339C60.6495 51.3683 60.3315 51.5 60 51.5H47.5C46.95 51.5 46.95 49 47.5 49ZM47.5 54H60C60.3315 54 60.6495 54.1317 60.8839 54.3661C61.1183 54.6005 61.25 54.9185 61.25 55.25C61.25 55.5815 61.1183 55.8995 60.8839 56.1339C60.6495 56.3683 60.3315 56.5 60 56.5H47.5C46.95 56.5 46.95 54 47.5 54ZM60 61.5H47.5C47.3937 61.5 46.95 59 47.5 59H60C60.3315 59 60.6495 59.1317 60.8839 59.3661C61.1183 59.6005 61.25 59.9185 61.25 60.25C61.25 60.5815 61.1183 60.8995 60.8839 61.1339C60.6495 61.3683 60.3315 61.5 60 61.5ZM63.6812 59.5563C63.6821 59.5554 63.6827 59.5545 63.6832 59.5534C63.6837 59.5523 63.6839 59.5512 63.6839 59.55C63.6839 59.5488 63.6837 59.5477 63.6832 59.5466C63.6827 59.5455 63.6821 59.5446 63.6812 59.5438C63.5555 58.8745 63.246 58.2535 62.7875 57.75C63.4072 57.0648 63.7503 56.1739 63.7503 55.25C63.7503 54.3261 63.4072 53.4352 62.7875 52.75C64.95 50.4938 63.1812 46.4125 60 46.5H51.5687C50.3022 43.073 48.0437 40.1009 45.0812 37.9625C45.6572 37.4207 46.0448 36.709 46.1875 35.9313C46.2729 35.4746 46.2708 35.0059 46.1812 34.55C46.052 33.8722 45.7387 33.2431 45.2757 32.7316C44.8127 32.2201 44.2178 31.8459 43.5562 31.65C44.3937 29.8875 45.1125 26.9875 43.0312 25.8563C42.0976 25.4066 41.0662 25.1982 40.0312 25.25C38.2437 25.25 36.7125 25.6375 36.0375 26.8125C35.8913 27.0573 35.7897 27.326 35.7375 27.6063C35.9687 27.0438 36.65 26.5 38.75 26.5C41.875 26.5 41.875 27.7188 41.875 28.375C41.8022 29.5604 41.3803 30.6977 40.6625 31.6438L36.6875 31.7125C36.915 32.0852 37.1811 32.4329 37.4812 32.75H36.2812C35.9528 32.7494 35.6275 32.8137 35.3239 32.9392C35.0204 33.0647 34.7446 33.2489 34.5125 33.4813C34.3485 33.6493 34.2076 33.8384 34.0937 34.0438C33.9521 34.2978 33.8569 34.575 33.8125 34.8625C33.8948 34.6122 34.0537 34.3942 34.2669 34.2394C34.48 34.0846 34.7365 34.0008 35 34H42.5C42.8315 34 43.1495 34.1317 43.3839 34.3661C43.6183 34.6005 43.75 34.9185 43.75 35.25C43.75 35.5815 43.6183 35.8995 43.3839 36.1339C43.1495 36.3683 42.8315 36.5 42.5 36.5H35C34.7365 36.4992 34.4801 36.4154 34.2669 36.2606C34.0537 36.1058 33.8948 35.8878 33.8125 35.6375C33.8569 35.925 33.9521 36.2022 34.0937 36.4563C34.3083 36.8487 34.6247 37.1761 35.0097 37.4037C35.3947 37.6314 35.834 37.7511 36.2812 37.75H36.7375C35.0732 38.4153 33.5723 39.4322 32.3375 40.7313C30.0977 43.0566 28.5036 45.9261 27.7125 49.0563C28.925 44.6313 32.0937 40.4875 35.7187 39H41.8C44.6437 40.175 47.2875 43.0063 48.8562 46.5H47.5C46.506 46.5019 45.5532 46.8975 44.8504 47.6004C44.1475 48.3033 43.7518 49.256 43.75 50.25C43.7502 51.1749 44.0956 52.0665 44.7187 52.75C44.103 53.4371 43.7625 54.3273 43.7625 55.25C43.7625 56.1727 44.103 57.0629 44.7187 57.75C44.3391 58.166 44.0596 58.6632 43.9015 59.2037C43.7433 59.7443 43.7107 60.3137 43.8062 60.8688C42.1568 61.3053 40.4561 61.5176 38.75 61.5C36.6187 61.5 33.775 61.225 31.4437 60.0313V60.725C33.7125 62.1188 36.725 62.75 40.0312 62.75C42.3081 62.7916 44.5738 62.4211 46.7187 61.6563C46.9463 61.9939 47.2534 62.2704 47.6132 62.4611C47.9729 62.6519 48.3741 62.7511 48.7812 62.75H61.2812C61.6672 62.7456 62.0471 62.6526 62.3915 62.4782C62.7358 62.3037 63.0355 62.0525 63.2674 61.7439C63.4993 61.4353 63.6573 61.0776 63.729 60.6983C63.8008 60.319 63.7844 59.9282 63.6812 59.5563Z" fill="black"/>
<path d="M39.4062 47.125H43.1562C43.4878 47.125 43.8057 46.9933 44.0401 46.7589C44.2746 46.5245 44.4062 46.2065 44.4062 45.875C44.4062 45.5435 44.2746 45.2255 44.0401 44.9911C43.8057 44.7567 43.4878 44.625 43.1562 44.625H41.2812V44C41.2812 43.6685 41.1496 43.3505 40.9151 43.1161C40.6807 42.8817 40.3628 42.75 40.0312 42.75C39.6997 42.75 39.3818 42.8817 39.1474 43.1161C38.9129 43.3505 38.7812 43.6685 38.7812 44V44.6815C37.8542 44.8377 37.0198 45.3366 36.4434 46.0792C35.867 46.8218 35.5908 47.754 35.6694 48.6908C35.7481 49.6275 36.1759 50.5005 36.8681 51.1367C37.5602 51.7728 38.4662 52.1255 39.4062 52.125H40.6562C40.9878 52.125 41.3057 52.2567 41.5401 52.4911C41.7746 52.7255 41.9062 53.0435 41.9062 53.375C41.9062 53.7065 41.7746 54.0245 41.5401 54.2589C41.3057 54.4933 40.9878 54.625 40.6562 54.625H36.9062C36.5747 54.625 36.2568 54.7567 36.0224 54.9911C35.7879 55.2255 35.6562 55.5435 35.6562 55.875C35.6562 56.2065 35.7879 56.5245 36.0224 56.7589C36.2568 56.9933 36.5747 57.125 36.9062 57.125H38.7812V57.75C38.7812 58.0815 38.9129 58.3995 39.1474 58.6339C39.3818 58.8683 39.6997 59 40.0312 59C40.3628 59 40.6807 58.8683 40.9151 58.6339C41.1496 58.3995 41.2812 58.0815 41.2812 57.75V57.0685C42.2083 56.9123 43.0427 56.4134 43.6191 55.6708C44.1955 54.9282 44.4717 53.996 44.3931 53.0592C44.3144 52.1225 43.8866 51.2495 43.1944 50.6133C42.5023 49.9772 41.5963 49.6245 40.6562 49.625H39.4062C39.0747 49.625 38.7568 49.4933 38.5224 49.2589C38.2879 49.0245 38.1562 48.7065 38.1562 48.375C38.1562 48.0435 38.2879 47.7255 38.5224 47.4911C38.7568 47.2567 39.0747 47.125 39.4062 47.125Z" fill="#212121"/>
<path d="M64.0685 52.75C64.5535 52.2119 64.8719 51.5446 64.9852 50.8291C65.0985 50.1135 65.0017 49.3805 64.7067 48.7189C64.4116 48.0573 63.9309 47.4955 63.3229 47.1016C62.7149 46.7078 62.0057 46.4988 61.2812 46.5H52.8451C51.5809 43.0733 49.3238 40.1013 46.3624 37.9635C46.8408 37.5104 47.1911 36.939 47.3778 36.307C47.5646 35.6751 47.5812 35.0051 47.4259 34.3647C47.2706 33.7243 46.949 33.1363 46.4935 32.66C46.0381 32.1838 45.465 31.8363 44.8322 31.6526C45.3494 30.6358 45.631 29.5155 45.6562 28.375C45.6562 26.7411 44.9257 24 40.0312 24C35.1368 24 34.4062 26.7411 34.4062 28.375C34.4315 29.5155 34.7131 30.6358 35.2303 31.6526C34.5963 31.8366 34.0222 32.1851 33.5663 32.6627C33.1105 33.1402 32.7891 33.7299 32.6348 34.3719C32.4806 35.0138 32.4989 35.6851 32.6879 36.3177C32.877 36.9503 33.23 37.5216 33.7112 37.9736C31.378 39.6904 29.4676 41.9173 28.1258 44.4846C26.784 47.0519 26.0462 49.8918 25.9688 52.7875C25.9687 59.8084 31.2257 64 40.0312 64C42.1731 64.0286 44.3066 63.727 46.3567 63.1058C47.0325 63.6831 47.8923 64.0003 48.7812 64H61.2812C62.0057 64.0012 62.7149 63.7922 63.3229 63.3984C63.9309 63.0045 64.4116 62.4427 64.7067 61.7811C65.0017 61.1195 65.0985 60.3865 64.9852 59.6709C64.8719 58.9554 64.5535 58.2881 64.0685 57.75C64.6881 57.0648 65.0312 56.1739 65.0312 55.25C65.0312 54.3261 64.6881 53.4352 64.0685 52.75ZM40.0312 26.5C43.1562 26.5 43.1562 27.7198 43.1562 28.375C43.1036 29.5101 42.7021 30.6014 42.0064 31.5H38.0561C37.3604 30.6014 36.9589 29.5101 36.9062 28.375C36.9062 27.7198 36.9062 26.5 40.0312 26.5ZM36.2812 34H43.7812C44.1128 34 44.4307 34.1317 44.6651 34.3661C44.8996 34.6005 45.0312 34.9185 45.0312 35.25C45.0312 35.5815 44.8996 35.8995 44.6651 36.1339C44.4307 36.3683 44.1128 36.5 43.7812 36.5H36.2812C35.9497 36.5 35.6318 36.3683 35.3974 36.1339C35.1629 35.8995 35.0312 35.5815 35.0312 35.25C35.0312 34.9185 35.1629 34.6005 35.3974 34.3661C35.6318 34.1317 35.9497 34 36.2812 34ZM45.0312 50.25C45.0316 51.1738 45.3746 52.0646 45.994 52.75C45.3744 53.4352 45.0313 54.3261 45.0313 55.25C45.0313 56.1739 45.3744 57.0648 45.994 57.75C45.6175 58.1675 45.3402 58.6647 45.1831 59.2045C45.0259 59.7443 44.9929 60.3127 45.0865 60.8671C43.4377 61.3052 41.7372 61.5182 40.0312 61.5C35.713 61.5 28.4688 60.3681 28.4688 52.7875C28.4688 47.1543 32.3573 40.9036 36.9999 39H43.076C45.9225 40.175 48.5632 43.0077 50.137 46.5H48.7812C47.787 46.5011 46.8338 46.8965 46.1308 47.5996C45.4278 48.3026 45.0323 49.2558 45.0312 50.25ZM61.2812 61.5H48.7812C48.4497 61.5 48.1318 61.3683 47.8974 61.1339C47.6629 60.8995 47.5312 60.5815 47.5312 60.25C47.5312 59.9185 47.6629 59.6005 47.8974 59.3661C48.1318 59.1317 48.4497 59 48.7812 59H61.2812C61.6128 59 61.9307 59.1317 62.1651 59.3661C62.3996 59.6005 62.5312 59.9185 62.5312 60.25C62.5312 60.5815 62.3996 60.8995 62.1651 61.1339C61.9307 61.3683 61.6128 61.5 61.2812 61.5ZM61.2812 56.5H48.7812C48.4497 56.5 48.1318 56.3683 47.8974 56.1339C47.6629 55.8995 47.5312 55.5815 47.5312 55.25C47.5312 54.9185 47.6629 54.6005 47.8974 54.3661C48.1318 54.1317 48.4497 54 48.7812 54H61.2812C61.6128 54 61.9307 54.1317 62.1651 54.3661C62.3996 54.6005 62.5312 54.9185 62.5312 55.25C62.5312 55.5815 62.3996 55.8995 62.1651 56.1339C61.9307 56.3683 61.6128 56.5 61.2812 56.5ZM61.2812 51.5H48.7812C48.4497 51.5 48.1318 51.3683 47.8974 51.1339C47.6629 50.8995 47.5312 50.5815 47.5312 50.25C47.5312 49.9185 47.6629 49.6005 47.8974 49.3661C48.1318 49.1317 48.4497 49 48.7812 49H61.2812C61.6128 49 61.9307 49.1317 62.1651 49.3661C62.3996 49.6005 62.5312 49.9185 62.5312 50.25C62.5312 50.5815 62.3996 50.8995 62.1651 51.1339C61.9307 51.3683 61.6128 51.5 61.2812 51.5Z" fill="#212121"/>
</g>
</g>
<defs>
<filter id="filter0_ddd_201_244" x="0.5" y="0" width="90" height="90" filterUnits="userSpaceOnUse" color-interpolation-filters="sRGB">
<feFlood flood-opacity="0" result="BackgroundImageFix"/>
<feColorMatrix in="SourceAlpha" type="matrix" values="0 0 0 0 0 0 0 0 0 0 0 0 0 0 0 0 0 0 127 0" result="hardAlpha"/>
<feOffset dy="1"/>
<feGaussianBlur stdDeviation="2.5"/>
<feColorMatrix type="matrix" values="0 0 0 0 0 0 0 0 0 0 0 0 0 0 0 0 0 0 0.2 0"/>
<feBlend mode="normal" in2="BackgroundImageFix" result="effect1_dropShadow_201_244"/>
<feColorMatrix in="SourceAlpha" type="matrix" values="0 0 0 0 0 0 0 0 0 0 0 0 0 0 0 0 0 0 127 0" result="hardAlpha"/>
<feOffset dy="3"/>
<feGaussianBlur stdDeviation="0.5"/>
<feColorMatrix type="matrix" values="0 0 0 0 0 0 0 0 0 0 0 0 0 0 0 0 0 0 0.12 0"/>
<feBlend mode="normal" in2="effect1_dropShadow_201_244" result="effect2_dropShadow_201_244"/>
<feColorMatrix in="SourceAlpha" type="matrix" values="0 0 0 0 0 0 0 0 0 0 0 0 0 0 0 0 0 0 127 0" result="hardAlpha"/>
<feOffset dy="2"/>
<feGaussianBlur stdDeviation="1"/>
<feColorMatrix type="matrix" values="0 0 0 0 0 0 0 0 0 0 0 0 0 0 0 0 0 0 0.14 0"/>
<feBlend mode="normal" in2="effect2_dropShadow_201_244" result="effect3_dropShadow_201_244"/>
<feBlend mode="normal" in="SourceGraphic" in2="effect3_dropShadow_201_244" result="shape"/>
</filter>
<clipPath id="clip0_201_244">
<rect width="40" height="40" fill="white" transform="translate(25.5 24)"/>
</clipPath>
</defs>
</svg>
