<svg width="47" height="59" viewBox="0 0 47 59" fill="none" xmlns="http://www.w3.org/2000/svg">
<path d="M23.5 32.2917C28.1254 32.2917 31.875 28.5421 31.875 23.9167C31.875 19.2914 28.1254 15.5417 23.5 15.5417C18.8746 15.5417 15.125 19.2914 15.125 23.9167C15.125 28.5421 18.8746 32.2917 23.5 32.2917Z" stroke="black" stroke-width="2" stroke-linecap="round" stroke-linejoin="round"/>
<path d="M23.5001 1.58337C17.5769 1.58337 11.8963 3.93634 7.70803 8.12466C3.51972 12.313 1.16675 17.9935 1.16675 23.9167C1.16675 29.1985 2.289 32.6546 5.35425 36.4792L23.5001 57.4167L41.6459 36.4792C44.7112 32.6546 45.8334 29.1985 45.8334 23.9167C45.8334 17.9935 43.4804 12.313 39.2921 8.12466C35.1038 3.93634 29.4233 1.58337 23.5001 1.58337Z" stroke="black" stroke-width="2" stroke-linecap="round" stroke-linejoin="round"/>
</svg>
