<svg width="94" height="67" viewBox="0 0 94 67" fill="none" xmlns="http://www.w3.org/2000/svg">
<path d="M60.7083 2.79163H29.3749C26.778 2.79163 24.2875 3.52693 22.4512 4.83578C20.6149 6.14462 19.5833 7.9198 19.5833 9.77079V57.2291C19.5833 59.0801 20.6149 60.8553 22.4512 62.1641C24.2875 63.473 26.778 64.2083 29.3749 64.2083H60.7083C63.3052 64.2083 65.7957 63.473 67.632 62.1641C69.4683 60.8553 70.4999 59.0801 70.4999 57.2291V9.77079C70.4999 7.9198 69.4683 6.14462 67.632 4.83578C65.7957 3.52693 63.3052 2.79163 60.7083 2.79163ZM45.0416 61.4166C41.7908 61.4166 39.1666 59.5462 39.1666 57.2291C39.1666 54.912 41.7908 53.0416 45.0416 53.0416C48.2924 53.0416 50.9166 54.912 50.9166 57.2291C50.9166 59.5462 48.2924 61.4166 45.0416 61.4166ZM62.6666 50.25H27.4166V11.1666H62.6666V50.25Z" fill="black"/>
</svg>
